<?xml version="1.0" encoding="UTF-8" standalone="no"?>
<!-- Created with Inkscape (http://www.inkscape.org/) -->

<svg
   width="210mm"
   height="210mm"
   viewBox="0 0 210 210"
   version="1.1"
   id="svg1"
   inkscape:version="1.3.2 (091e20e, 2023-11-25, custom)"
   sodipodi:docname="YEP Logo.svg"
   inkscape:export-filename="YEP Logo.jpg"
   inkscape:export-xdpi="500"
   inkscape:export-ydpi="500"
   xmlns:inkscape="http://www.inkscape.org/namespaces/inkscape"
   xmlns:sodipodi="http://sodipodi.sourceforge.net/DTD/sodipodi-0.dtd"
   xmlns="http://www.w3.org/2000/svg"
   xmlns:svg="http://www.w3.org/2000/svg">
  <sodipodi:namedview
     id="namedview1"
     pagecolor="#ffffff"
     bordercolor="#000000"
     borderopacity="0.25"
     inkscape:showpageshadow="2"
     inkscape:pageopacity="0.0"
     inkscape:pagecheckerboard="0"
     inkscape:deskcolor="#d1d1d1"
     inkscape:document-units="mm"
     inkscape:zoom="0.72248176"
     inkscape:cx="182.01152"
     inkscape:cy="418.69569"
     inkscape:window-width="1920"
     inkscape:window-height="1046"
     inkscape:window-x="-11"
     inkscape:window-y="-11"
     inkscape:window-maximized="1"
     inkscape:current-layer="layer1" />
  <defs
     id="defs1">
    <rect
       x="361.25479"
       y="341.0412"
       width="350.18185"
       height="135.0954"
       id="rect10" />
  </defs>
  <g
     inkscape:label="Layer 1"
     inkscape:groupmode="layer"
     id="layer1">
    <g
       id="g1"
       transform="matrix(2.9882121,0,0,2.9882121,-189.14934,-185.04563)">
      <path
         id="rect2"
         style="display:inline;fill:#001a72;fill-opacity:1;stroke:none;stroke-width:0.180315;stroke-linecap:round;stroke-linejoin:round;paint-order:fill markers stroke"
         d="m 79.43119,97.451477 c -0.06791,0.18223 -0.110089,0.37741 -0.110089,0.58387 v 9.205803 c 0,6.09369 38.230759,6.17276 38.230759,0 v -9.205803 c 0,-0.20069 -0.0408,-0.39027 -0.10518,-0.56823 l -17.754445,5.578073 c -0.780486,0.2452 -2.035966,0.2418 -2.815099,-0.008 z"
         sodipodi:nodetypes="csssscccc" />
      <path
         id="path10"
         style="display:inline;fill:#001a72;fill-opacity:1;stroke:#09d009;stroke-width:0.10026;stroke-linecap:round;stroke-linejoin:round;paint-order:fill markers stroke"
         d="m 99.996037,82.526067 29.303693,9.38295 c 0.77913,0.24948 0.77804,0.64773 -0.002,0.89294 l -29.605088,9.301153 c -0.780487,0.24521 -2.036064,0.24178 -2.815197,-0.008 L 67.573351,92.712207 c -0.779134,-0.24947 -0.778044,-0.64772 0.0024,-0.89293 l 29.605048,-9.30091 c 0.780487,-0.24521 2.036064,-0.24178 2.815198,0.008 z" />
      <path
         id="path3"
         style="color:#000000;display:inline;fill:#09d009;fill-opacity:1;stroke-width:0.639031;stroke-linecap:round;stroke-linejoin:round;-inkscape-stroke:none;paint-order:fill markers stroke"
         d="m 123.85703,92.789487 0.081,7.655603 c -0.46053,0.202 -0.76568,0.71278 -0.76695,1.28376 10e-4,0.44555 0.18796,0.86298 0.50169,1.12019 -0.15706,0.19061 -0.24527,0.44368 -0.24655,0.70731 h -0.002 l 3.1e-4,0.0171 c -1.1e-4,0.001 -2.1e-4,0.003 -3.1e-4,0.004 l 0.002,0.0818 0.0837,5.4487 0.84238,-0.0177 c 0.0229,0.003 0.0459,0.006 0.069,0.007 0.0356,-0.001 0.0712,-0.005 0.10641,-0.011 l 0.76296,-0.016 -0.0129,-0.82574 c 0.0103,-0.0668 0.0149,-0.13453 0.0138,-0.20234 l -0.0813,-4.17241 -0.005,-0.34885 h -0.002 c -0.006,-0.23125 -0.0796,-0.45329 -0.20791,-0.6305 0.34263,-0.2524 0.55026,-0.69036 0.55045,-1.16108 -1.4e-4,-0.54905 -0.28168,-1.04548 -0.71635,-1.26314 l -0.0825,-7.684053 z"
         sodipodi:nodetypes="cccccccccccccccccccccccc" />
      <path
         id="path24"
         style="display:inline;fill:#09d009;fill-opacity:1;stroke:none;stroke-width:0.180315;stroke-linecap:round;stroke-linejoin:round;paint-order:fill markers stroke"
         d="m 79.321186,103.53711 v 1.05833 c 0,6.09369 38.230744,6.17276 38.230744,0 v -1.05833 c 0,6.17275 -38.230744,6.09368 -38.230744,0 z" />
      <path
         style="display:inline;fill:#09d009;fill-opacity:1;stroke:#09d009;stroke-width:1;stroke-linecap:round;stroke-linejoin:round;stroke-dasharray:none;stroke-opacity:1;paint-order:fill markers stroke"
         d="m 98.436542,92.310747 25.809718,0.52008"
         id="path25"
         sodipodi:nodetypes="cc" />
    </g>
  </g>
</svg>
