<?xml version="1.0" encoding="UTF-8" standalone="no"?>
<!-- Created with Inkscape (http://www.inkscape.org/) -->

<svg
   width="210mm"
   height="210mm"
   viewBox="0 0 210 210"
   version="1.1"
   id="svg1"
   xml:space="preserve"
   inkscape:version="1.3.2 (091e20e, 2023-11-25, custom)"
   sodipodi:docname="YEP Logo with text.svg"
   inkscape:export-filename="YEP Logo with text.jpg"
   inkscape:export-xdpi="500"
   inkscape:export-ydpi="500"
   xmlns:inkscape="http://www.inkscape.org/namespaces/inkscape"
   xmlns:sodipodi="http://sodipodi.sourceforge.net/DTD/sodipodi-0.dtd"
   xmlns="http://www.w3.org/2000/svg"
   xmlns:svg="http://www.w3.org/2000/svg"><sodipodi:namedview
     id="namedview1"
     pagecolor="#ffffff"
     bordercolor="#000000"
     borderopacity="0.25"
     inkscape:showpageshadow="2"
     inkscape:pageopacity="0.0"
     inkscape:pagecheckerboard="0"
     inkscape:deskcolor="#d1d1d1"
     inkscape:document-units="mm"
     inkscape:zoom="0.72248176"
     inkscape:cx="593.09456"
     inkscape:cy="485.13336"
     inkscape:window-width="1920"
     inkscape:window-height="1046"
     inkscape:window-x="-11"
     inkscape:window-y="-11"
     inkscape:window-maximized="1"
     inkscape:current-layer="layer1" /><defs
     id="defs1"><rect
       x="166.09416"
       y="829.08667"
       width="523.19659"
       height="114.88179"
       id="rect3" /><rect
       x="396.8504"
       y="491.24664"
       width="333.9639"
       height="140.02641"
       id="rect1" /><rect
       x="361.25479"
       y="341.0412"
       width="350.18185"
       height="135.0954"
       id="rect10" /><rect
       x="166.09416"
       y="829.08667"
       width="523.19659"
       height="114.88179"
       id="rect4" /><rect
       x="166.09416"
       y="829.08667"
       width="523.19659"
       height="114.88179"
       id="rect6" /><rect
       x="166.09416"
       y="829.08667"
       width="523.19659"
       height="114.88179"
       id="rect7" /><rect
       x="166.09416"
       y="829.08667"
       width="523.19659"
       height="114.88179"
       id="rect8" /></defs><g
     inkscape:label="Layer 1"
     inkscape:groupmode="layer"
     id="layer1"><g
       id="g7"
       transform="matrix(1.5147496,0,0,1.5147496,-54.048711,-64.849784)"><g
         id="g1"
         transform="matrix(1.2468758,0,0,1.2468758,-17.73815,-32.43002)"><path
           id="rect2"
           style="display:inline;fill:#001a72;fill-opacity:1;stroke:none;stroke-width:0.247215;stroke-linecap:round;stroke-linejoin:round;paint-order:fill markers stroke"
           d="m 72.379848,97.59551 c -0.09311,0.24984 -0.150934,0.517436 -0.150934,0.800496 v 12.621324 c 0,8.35456 52.415076,8.46297 52.415076,0 V 98.396006 c 0,-0.27515 -0.0559,-0.535067 -0.14421,-0.779054 l -24.34167,7.647638 c -1.070059,0.33618 -2.791345,0.33151 -3.85955,-0.011 z"
           sodipodi:nodetypes="csssscccc" /><path
           id="path10"
           style="display:inline;fill:#001a72;fill-opacity:1;stroke:#09d009;stroke-width:0.137458;stroke-linecap:round;stroke-linejoin:round;paint-order:fill markers stroke"
           d="m 100.57463,77.132499 40.1759,12.864196 c 1.0682,0.342042 1.06671,0.88805 -0.003,1.224237 l -40.58912,12.752048 c -1.070062,0.33619 -2.791481,0.33149 -3.859687,-0.011 L 56.122533,91.097883 c -1.068207,-0.342027 -1.066712,-0.888035 0.0033,-1.224223 L 96.714887,77.121942 c 1.070062,-0.336187 2.791481,-0.331485 3.859693,0.01097 z" /><path
           id="path3"
           style="color:#000000;display:inline;fill:#09d009;fill-opacity:1;stroke-width:0.876123;stroke-linecap:round;stroke-linejoin:round;-inkscape-stroke:none;paint-order:fill markers stroke"
           d="m 133.28849,91.203836 0.11105,10.495974 c -0.63139,0.27694 -1.04976,0.97723 -1.0515,1.76006 0.001,0.61085 0.2577,1.18316 0.68782,1.5358 -0.21533,0.26133 -0.33626,0.60829 -0.33802,0.96973 h -0.003 l 4.2e-4,0.0234 c -1.5e-4,0.001 -2.8e-4,0.004 -4.2e-4,0.005 l 0.003,0.11215 0.11475,7.47027 1.15492,-0.0243 c 0.0314,0.004 0.0629,0.008 0.0946,0.01 0.0488,-0.001 0.0976,-0.007 0.14589,-0.0151 l 1.04604,-0.0219 -0.0177,-1.1321 c 0.0141,-0.0916 0.0204,-0.18445 0.0189,-0.27742 l -0.11146,-5.72045 -0.007,-0.47828 h -0.003 c -0.008,-0.31704 -0.10913,-0.62147 -0.28505,-0.86442 0.46975,-0.34605 0.75442,-0.9465 0.75468,-1.59187 -1.9e-4,-0.75275 -0.38619,-1.43337 -0.98213,-1.73178 L 134.5086,91.193759 Z"
           sodipodi:nodetypes="cccccccccccccccccccccccc" /><path
           id="path24"
           style="display:inline;fill:#09d009;fill-opacity:1;stroke:none;stroke-width:0.247215;stroke-linecap:round;stroke-linejoin:round;paint-order:fill markers stroke"
           d="m 72.22903,105.93902 v 1.45099 c 0,8.35456 52.41505,8.46297 52.41505,0 v -1.45099 c 0,8.46296 -52.41505,8.35455 -52.41505,0 z" /><path
           style="display:inline;fill:#09d009;fill-opacity:1;stroke:#09d009;stroke-width:1.37102;stroke-linecap:round;stroke-linejoin:round;stroke-dasharray:none;stroke-opacity:1;paint-order:fill markers stroke"
           d="m 98.436534,90.547474 35.385596,0.71304"
           id="path25"
           sodipodi:nodetypes="cc" /></g><g
         id="g6"
         transform="translate(4.309465e-7,36.793993)"><text
           xml:space="preserve"
           style="font-size:19.4673px;line-height:1;font-family:'Agency FB';-inkscape-font-specification:'Agency FB';letter-spacing:1.32064px;fill:#051d71;stroke-width:0.778691;stroke-linecap:round;stroke-linejoin:round;paint-order:fill markers stroke"
           x="73.83329"
           y="120.62643"
           id="text3"><tspan
             sodipodi:role="line"
             id="tspan3"
             style="stroke-width:0.778691"
             x="73.83329"
             y="120.62643">Program</tspan></text><g
           id="g4"
           transform="matrix(0.77869062,0,0,0.77869062,-25.398117,51.479942)"><text
             xml:space="preserve"
             style="font-size:25px;line-height:1;font-family:'Agency FB';-inkscape-font-specification:'Agency FB';letter-spacing:1.69598px;fill:#051d71;stroke-width:1;stroke-linecap:round;stroke-linejoin:round;paint-order:fill markers stroke"
             x="88.842796"
             y="63.262863"
             id="text2"><tspan
               sodipodi:role="line"
               id="tspan2"
               style="stroke-width:1"
               x="88.842796"
               y="63.262863">Youth</tspan></text><text
             xml:space="preserve"
             style="font-size:25px;line-height:1;font-family:'Agency FB';-inkscape-font-specification:'Agency FB';letter-spacing:1.69598px;fill:#09d009;fill-opacity:1;stroke-width:1;stroke-linecap:round;stroke-linejoin:round;paint-order:fill markers stroke"
             x="149.62079"
             y="63.336105"
             id="text4"><tspan
               sodipodi:role="line"
               id="tspan4"
               style="fill:#09d009;fill-opacity:1;stroke-width:1"
               x="149.62079"
               y="63.336105">Excellence</tspan></text></g></g></g></g></svg>
