<?xml version="1.0" encoding="UTF-8" standalone="no"?>
<!-- Created with Inkscape (http://www.inkscape.org/) -->

<svg
   width="210mm"
   height="210mm"
   viewBox="0 0 210 210"
   version="1.1"
   id="svg1"
   xmlns="http://www.w3.org/2000/svg"
   xmlns:svg="http://www.w3.org/2000/svg">
  <defs
     id="defs1" />
  <text
     xml:space="preserve"
     style="font-style:normal;font-variant:normal;font-weight:normal;font-stretch:normal;font-size:24.8072px;font-family:'Agency FB';-inkscape-font-specification:'Agency FB';letter-spacing:1.6972px;fill:#ffffff;fill-opacity:1;stroke:#646be5;stroke-width:1.21031;stroke-opacity:0;paint-order:fill markers stroke"
     x="66.642899"
     y="111.05433"
     id="text13"><tspan
       id="tspan13"
       style="font-style:normal;font-variant:normal;font-weight:normal;font-stretch:normal;font-size:24.8072px;font-family:'Agency FB';-inkscape-font-specification:'Agency FB';letter-spacing:1.6972px;fill:#ffffff;fill-opacity:1;stroke-width:1.21031"
       x="66.642899"
       y="111.05433">riz   ventures</tspan></text>
  <text
     xml:space="preserve"
     style="font-style:normal;font-variant:normal;font-weight:normal;font-stretch:normal;font-size:24.8072px;font-family:'Agency FB';-inkscape-font-specification:'Agency FB';letter-spacing:1.19955px;fill:#09d009;fill-opacity:1;stroke:#646be5;stroke-width:0.855421;stroke-opacity:0;paint-order:fill markers stroke"
     x="92.013557"
     y="111.05433"
     id="text14"><tspan
       id="tspan14"
       style="font-size:24.8072px;stroke-width:0.855421"
       x="92.013557"
       y="111.05433">q</tspan></text>
  <path
     id="path2"
     style="fill:#ffffff;fill-opacity:1;stroke:#646be5;stroke-width:0.277391;stroke-opacity:0;paint-order:fill markers stroke"
     d="m 37.302431,86.147633 c -0.353551,0.35322 -0.707366,0.706179 -1.06084,1.059476 -0.270585,0.27045 -0.27044,0.709344 -1.3e-5,0.979957 5.75853,5.762536 11.517098,11.525032 17.275658,17.287544 0.417806,0.41809 0.417575,1.09572 -4.27e-4,1.51353 l -17.315185,17.30332 c -0.250362,0.25019 -0.256456,0.66178 -0.0091,0.91495 0.370951,0.37969 0.77256,0.77895 1.101908,1.10586 0.251443,0.24959 0.657933,0.24941 0.908589,-0.001 L 56.672488,107.8542 a 2.2939491,2.2939491 0 0 0 0.0013,-3.24413 L 38.223697,86.147809 c -0.25435,-0.254527 -0.666707,-0.254496 -0.921266,-1.76e-4 z" />
  <rect
     style="fill:#ffffff;fill-opacity:1;stroke:#646be5;stroke-width:0.265818;stroke-opacity:0;paint-order:fill markers stroke"
     id="rect6"
     width="2.8307638"
     height="2.8307638"
     x="81.06311"
     y="30.656078"
     transform="rotate(45.017906)"
     ry="0.64510632" />
  <path
     id="rect9"
     style="fill:#09d009;fill-opacity:1;stroke:#646be5;stroke-width:0.243692;stroke-opacity:0;paint-order:fill markers stroke"
     d="m 33.752287,93.179047 c -1.509713,1.515684 -3.01968,3.031112 -4.531149,4.545042 -1.19046,1.192398 -1.185934,3.118811 0.0115,4.304201 1.333694,1.32028 2.667367,2.64058 4.001039,3.96088 1.342368,1.32891 3.507854,1.31797 4.836742,-0.0244 l 3.08925,-3.12064 a 1.3963931,1.3963931 0 0 1 1.97799,-0.007 l 1.920628,1.9137 a 2.0615294,2.0615294 0 0 1 0.0053,2.91543 l -8.196842,8.2266 a 1.741394,1.741394 0 0 1 -2.462698,0.004 l -8.787049,-8.75527 a 1.2718587,1.2718587 0 0 1 -0.0043,-1.79759 l 0.744997,-0.74951 a 1.0042593,1.0042593 0 0 0 -0.0019,-1.41787 l -0.539261,-0.5396 a 1.0526681,1.0526681 0 0 0 -1.490279,10e-4 l -0.937669,0.94107 a 3.7733824,3.7733824 0 0 0 0.0097,5.33637 l 9.538404,9.50388 a 3.8232059,3.8232059 0 0 0 5.40682,-0.01 l 9.325331,-9.35922 a 4.0263467,4.0263467 0 0 0 -0.01033,-5.6941 L 37.436444,93.172026 c -1.019293,-1.015601 -2.66872,-1.012434 -3.684157,0.007 z m 2.449905,2.747916 3.103439,3.092184 a 1.1826034,1.1826034 0 0 1 0.0077,1.667723 l -2.921384,2.96518 a 1.0521386,1.0521386 0 0 1 -1.489923,0.009 l -3.283866,-3.25284 a 0.76625555,0.76625555 0 0 1 -0.0035,-1.085234 l 3.381606,-3.393902 a 0.85275106,0.85275106 0 0 1 1.205968,-0.0022 z" />
  <rect
     style="fill:#09d009;fill-opacity:1;stroke:#646be5;stroke-width:0.265818;stroke-opacity:0;paint-order:fill markers stroke"
     id="rect15"
     width="2.8307638"
     height="2.8307638"
     x="84.159691"
     y="30.655109"
     transform="rotate(45.017906)"
     ry="0.64510632" />
  <rect
     style="fill:#09d009;fill-opacity:1;stroke:#646be5;stroke-width:0.265818;stroke-opacity:0;paint-order:fill markers stroke"
     id="rect16"
     width="2.8307638"
     height="2.8307638"
     x="81.064079"
     y="33.752659"
     transform="rotate(45.017906)"
     ry="0.64510632" />
  <path
     id="path19"
     style="fill:#ffffff;fill-opacity:1;stroke:#646be5;stroke-width:0.277391;stroke-opacity:0;paint-order:fill markers stroke"
     d="m 33.989254,86.147633 c 0.353551,0.35322 0.707366,0.706179 1.06084,1.059476 0.270585,0.27045 0.270439,0.709344 1.3e-5,0.979957 -5.75853,5.762536 -11.517099,11.525032 -17.275659,17.287544 -0.417805,0.41809 -0.417574,1.09572 4.27e-4,1.51353 l 17.315186,17.30332 c 0.250362,0.25019 0.256455,0.66178 0.0091,0.91495 -0.370951,0.37969 -0.77256,0.77895 -1.101909,1.10586 -0.251442,0.24959 -0.657932,0.24941 -0.908589,-0.001 L 14.619197,107.8542 a 2.2939491,2.2939491 0 0 1 -0.0013,-3.24413 l 18.45009,-18.462261 c 0.25435,-0.254527 0.666707,-0.254496 0.921267,-1.76e-4 z" />
</svg>
