<?xml version="1.0" encoding="UTF-8" standalone="no"?>
<!-- Created with Inkscape (http://www.inkscape.org/) -->

<svg
   width="210mm"
   height="210mm"
   viewBox="0 0 210 210"
   version="1.1"
   id="svg1"
   xmlns="http://www.w3.org/2000/svg"
   xmlns:svg="http://www.w3.org/2000/svg">
  <defs
     id="defs1" />
  <g
     id="layer1">
    <path
       id="path2-9"
       style="fill:#ffffff;fill-opacity:1;stroke:#646be5;stroke-width:0.649629;stroke-opacity:0;paint-order:fill markers stroke"
       d="m 108.96475,46.647962 c -0.82799,0.827216 -1.6566,1.653821 -2.48441,2.481217 -0.63369,0.633375 -0.63335,1.661233 -3e-5,2.294987 13.48606,13.495443 26.97221,26.990791 40.45834,40.486166 0.97847,0.979143 0.97793,2.566105 -0.001,3.544577 l -40.55091,40.523131 c -0.58633,0.58593 -0.6006,1.54984 -0.0213,2.14275 0.86874,0.8892 1.80928,1.82424 2.58059,2.58985 0.58886,0.58452 1.54083,0.5841 2.12785,-0.003 l 43.25414,-43.224466 a 5.3722627,5.3722627 90.019662 0 0 0.003,-7.597527 L 111.12229,46.648376 c -0.59567,-0.596084 -1.56138,-0.596013 -2.15754,-4.14e-4 z"
       transform="matrix(1.4408395,0,0,1.4408395,-46.410823,-18.707538)" />
    <rect
       style="fill:#ffffff;fill-opacity:1;stroke:#646be5;stroke-width:0.89696;stroke-opacity:0;paint-order:fill markers stroke"
       id="rect6-8"
       width="9.5519648"
       height="9.5519648"
       x="91.427055"
       y="-56.945507"
       transform="rotate(45.017906)"
       ry="2.1768091" />
    <path
       id="rect9-5"
       style="fill:#09d009;fill-opacity:1;stroke:#646be5;stroke-width:0.57071;stroke-opacity:0;paint-order:fill markers stroke"
       d="m 100.65057,63.115024 c -3.535637,3.549624 -7.071871,7.098646 -10.611622,10.644159 -2.787972,2.792511 -2.777371,7.304021 0.02694,10.080125 3.123414,3.091994 6.24678,6.184039 9.370142,9.276087 3.143728,3.112214 8.215138,3.086612 11.327298,-0.05718 l 7.2348,-7.308321 a 3.2702515,3.2702515 179.80342 0 1 4.63231,-0.01589 l 4.49797,4.48175 a 4.8279525,4.8279525 89.896361 0 1 0.0123,6.827727 l -19.19641,19.266088 a 4.0782186,4.0782186 179.89621 0 1 -5.76746,0.0104 L 81.598207,95.815757 a 2.9786009,2.9786009 89.861469 0 1 -0.01018,-4.209811 l 1.744729,-1.755313 a 2.3519025,2.3519025 89.922384 0 0 -0.0045,-3.320532 L 82.065344,85.26639 a 2.4652725,2.4652725 179.95714 0 0 -3.490124,0.0026 l -2.195953,2.203921 a 8.8369882,8.8369882 89.896177 0 0 0.02265,12.497382 L 98.740168,122.2277 a 8.9536713,8.9536713 179.8961 0 0 12.662382,-0.023 l 21.83925,-21.91861 a 9.4294123,9.4294123 89.896106 0 0 -0.0242,-13.335175 L 109.2786,63.098582 c -2.38711,-2.378464 -6.24995,-2.371047 -8.62803,0.01644 z m 5.7375,6.435422 7.26803,7.241669 a 2.7695714,2.7695714 89.734845 0 1 0.0181,3.905698 l -6.84167,6.944221 a 2.4640324,2.4640324 179.65093 0 1 -3.48929,0.02126 l -7.690577,-7.617916 a 1.794515,1.794515 89.812037 0 1 -0.0083,-2.54153 l 7.919474,-7.948272 a 1.9970812,1.9970812 179.89596 0 1 2.82429,-0.0051 z"
       transform="matrix(1.4408395,0,0,1.4408395,-46.410823,-18.707538)" />
    <rect
       style="fill:#09d009;fill-opacity:1;stroke:#646be5;stroke-width:0.89696;stroke-opacity:0;paint-order:fill markers stroke"
       id="rect15"
       width="9.5519648"
       height="9.5519648"
       x="101.87598"
       y="-56.948772"
       transform="rotate(45.017906)"
       ry="2.1768091" />
    <rect
       style="fill:#09d009;fill-opacity:1;stroke:#646be5;stroke-width:0.89696;stroke-opacity:0;paint-order:fill markers stroke"
       id="rect16"
       width="9.5519648"
       height="9.5519648"
       x="91.430313"
       y="-46.496582"
       transform="rotate(45.017906)"
       ry="2.1768091" />
    <path
       id="path19"
       style="fill:#ffffff;fill-opacity:1;stroke:#646be5;stroke-width:0.649629;stroke-opacity:0;paint-order:fill markers stroke"
       d="m 108.96475,46.647962 c -0.82799,0.827216 -1.6566,1.653821 -2.48441,2.481217 -0.63369,0.633375 -0.63335,1.661233 -3e-5,2.294987 13.48606,13.495443 26.97221,26.990791 40.45834,40.486166 0.97847,0.979143 0.97793,2.566105 -0.001,3.544577 l -40.55091,40.523131 c -0.58633,0.58593 -0.6006,1.54984 -0.0213,2.14275 0.86874,0.8892 1.80928,1.82424 2.58059,2.58985 0.58886,0.58452 1.54083,0.5841 2.12785,-0.003 l 43.25414,-43.224466 a 5.3722627,5.3722627 90.019662 0 0 0.003,-7.597527 L 111.12229,46.648376 c -0.59567,-0.596084 -1.56138,-0.596013 -2.15754,-4.14e-4 z"
       transform="matrix(-1.4408395,0,0,1.4408395,256.41082,-18.707538)" />
  </g>
</svg>
