<?xml version="1.0" encoding="UTF-8" standalone="no"?>
<!-- Created with Inkscape (http://www.inkscape.org/) -->

<svg
   width="210mm"
   height="210mm"
   viewBox="0 0 210 210"
   version="1.1"
   id="svg1"
   xml:space="preserve"
   inkscape:version="1.3.2 (091e20e, 2023-11-25, custom)"
   sodipodi:docname="Thinkseed Logo.svg"
   inkscape:export-filename="Thinkseed Logo.png"
   inkscape:export-xdpi="500"
   inkscape:export-ydpi="500"
   xmlns:inkscape="http://www.inkscape.org/namespaces/inkscape"
   xmlns:sodipodi="http://sodipodi.sourceforge.net/DTD/sodipodi-0.dtd"
   xmlns="http://www.w3.org/2000/svg"
   xmlns:svg="http://www.w3.org/2000/svg"><sodipodi:namedview
     id="namedview1"
     pagecolor="#ffffff"
     bordercolor="#000000"
     borderopacity="0.25"
     inkscape:showpageshadow="2"
     inkscape:pageopacity="0.0"
     inkscape:pagecheckerboard="0"
     inkscape:deskcolor="#d1d1d1"
     inkscape:document-units="mm"
     inkscape:zoom="0.70710678"
     inkscape:cx="121.62237"
     inkscape:cy="344.361"
     inkscape:window-width="1920"
     inkscape:window-height="1046"
     inkscape:window-x="-11"
     inkscape:window-y="-11"
     inkscape:window-maximized="1"
     inkscape:current-layer="layer3" /><defs
     id="defs1"><inkscape:path-effect
       effect="copy_rotate"
       starting_point="106,120"
       origin="105,120"
       id="path-effect11"
       is_visible="true"
       lpeversion="1.2"
       lpesatellites=""
       method="normal"
       num_copies="7"
       starting_angle="0"
       rotation_angle="40"
       gap="10"
       copies_to_360="false"
       mirror_copies="false"
       split_items="false"
       link_styles="false" /><inkscape:path-effect
       effect="mirror_symmetry"
       start_point="107.07167,165.33892"
       end_point="107.07167,34.136591"
       center_point="107.07167,99.737756"
       id="path-effect7"
       is_visible="true"
       lpeversion="1.2"
       lpesatellites=""
       mode="free"
       discard_orig_path="false"
       fuse_paths="true"
       oposite_fuse="false"
       split_items="false"
       split_open="false"
       link_styles="false" /><inkscape:path-effect
       effect="skeletal"
       id="path-effect4"
       is_visible="true"
       lpeversion="1"
       pattern="M 60.812419,11.496564 A 43.121328,43.121328 0 0 0 32.891181,21.924009 l -21.575916,1.04287 H 31.636326 65.244925 L 33.20304,24.515899 A 43.121328,43.121328 0 0 0 63.410863,37.035919 43.121328,43.121328 0 0 0 92.587527,25.565609 43.121328,43.121328 0 0 0 60.812419,11.496564 Z"
       copytype="single_stretched"
       prop_scale="1"
       scale_y_rel="false"
       spacing="0"
       normal_offset="0"
       tang_offset="0"
       prop_units="false"
       vertical_pattern="false"
       hide_knot="false"
       fuse_tolerance="0" /></defs><g
     inkscape:groupmode="layer"
     id="layer2"
     inkscape:label="Leaves"><g
       id="g6"
       transform="matrix(0.57234783,0,0,0.63673678,51.900103,64.300137)"
       inkscape:export-filename=".\bulb.jpg"
       inkscape:export-xdpi="500"
       inkscape:export-ydpi="500"><path
         style="opacity:1;fill:#09d009;fill-opacity:1;stroke:none;stroke-width:1.21447;stroke-dasharray:none;stroke-opacity:1;paint-order:fill markers stroke"
         d="m 78.115708,96.26325 c 7.8381,1.97507 15.950955,24.9632 15.794412,29.9533 2.523245,-8.34277 -1.919395,-17.25208 -5.032498,-23.52341 C 85.764519,96.421812 77.647916,88.90554 74.794098,85.644945 v 0 c -2.498822,-2.766721 -5.460594,-5.136593 -8.641873,-7.190758 -4.715767,-3.048128 -9.874631,-5.396347 -15.221438,-7.368162 5.439597,1.720457 10.728318,3.832024 15.656028,6.69369 v 2e-6 c 3.327011,1.930892 6.472411,4.213543 9.204057,6.962964 5.154417,5.18696 8.150083,8.611371 8.524557,8.45834 C 91.44401,60.269347 55.295335,39.292991 18.501058,58.829317 38.050026,72.489856 39.86123,86.623763 78.115708,96.26325 Z"
         id="path4"
         sodipodi:nodetypes="sczssccsscccs" /><path
         id="path5"
         style="opacity:1;fill:#09d009;fill-opacity:1;stroke:none;stroke-width:1.21447;stroke-dasharray:none;stroke-opacity:1;paint-order:fill markers stroke"
         d="m 145.54704,15.091893 c -26.71906,0.306162 -44.53344,11.539106 -40.80951,37.633885 0.0176,0.05879 0.0352,0.116862 0.0533,0.175302 0.0213,-0.03781 0.0425,-0.07511 0.0641,-0.11281 1.87677,-3.281033 4.36828,-6.14611 7.24114,-8.509441 2.93533,-2.415223 6.03474,-4.805531 9.72407,-5.860436 5.46524,-1.562705 10.59541,-3.776047 16.16977,-4.868683 -5.49952,1.351889 -10.83755,3.097083 -15.78243,5.58531 -3.33567,1.676469 -9.17783,6.148548 -9.17783,6.148548 0,0 -4.87676,5.239916 -6.48633,8.4015 -0.30146,0.582111 -0.58064,1.174293 -0.83787,1.775742 -12.93011,32.122726 -13.05311,77.73931 -19.562815,108.2383 3.318495,2.84102 6.619515,7.52428 7.282671,-10.55382 1.517477,-41.36742 12.576464,-97.484272 17.999914,-97.755899 l 1.53942,-0.0771 c 47.55004,-3.071414 36.27107,-26.665011 56.84384,-37.994227 -8.60024,-1.541211 -16.78009,-2.311896 -24.26142,-2.226171 z"
         sodipodi:nodetypes="sccccsccccccssccs" /></g></g><g
     inkscape:groupmode="layer"
     id="layer3"
     inkscape:label="Bulb"
     transform="translate(-2.0716223,-8.2864893)"
     style="display:inline"><g
       id="g7"
       style="stroke-width:4.6;stroke-dasharray:none"
       transform="translate(0,-29.596243)"><path
         id="path6"
         style="opacity:1;mix-blend-mode:lighten;fill:none;stroke:#001a72;stroke-width:4.58909;stroke-linejoin:round;stroke-dasharray:none;stroke-opacity:1;paint-order:fill markers stroke"
         d="m 107.07227,34.136719 c -28.030994,1.26e-4 -50.755911,22.568076 -50.755864,50.40625 0.01891,16.885851 14.416892,31.475771 20.080078,41.964841 5.663187,10.48907 5.820313,38.83203 5.820313,38.83203 h 24.855473 24.85351 c 0,0 0.15713,-28.34296 5.82031,-38.83203 5.66319,-10.48907 20.06117,-25.07899 20.08008,-41.964841 5e-5,-27.838174 -22.72291,-50.406124 -50.7539,-50.40625 z"
         sodipodi:nodetypes="cczccccc"
         transform="matrix(0.99992975,0,0,1.0048303,0.00785602,40.978087)"
         inkscape:original-d="M 107.07141,34.136591 C 79.040392,34.136717 56.316843,56.704098 56.31689,84.5423 c 0.01891,16.88587 14.416203,31.47683 20.079395,41.96591 5.663192,10.48908 5.820833,38.83071 5.820833,38.83071 h 52.883592 v -38.77955 c 14.19027,-9.33519 22.72399,-25.11296 22.72575,-42.01707 5e-5,-27.838407 -22.72383,-50.405874 -50.75505,-50.405709 z"
         inkscape:path-effect="#path-effect7" /><path
         id="rect7"
         style="opacity:1;fill:#001a72;stroke-width:5.93336;stroke-dasharray:none;paint-order:fill markers stroke"
         d="m 82.218527,204.5427 h 49.710243 v 4.8795 H 82.218527 Z" /></g><rect
       style="fill:#001a72;fill-opacity:1;stroke:none;stroke-width:3;stroke-dasharray:none;stroke-opacity:1;paint-order:fill markers stroke"
       id="rect8"
       width="52.758701"
       height="6.6833"
       x="78.620644"
       y="173.44922"
       ry="3.34165"
       transform="translate(2.0716223,8.2864893)" /><rect
       style="fill:#001a72;fill-opacity:1;stroke:none;stroke-width:2.59827;stroke-dasharray:none;stroke-opacity:1;paint-order:fill markers stroke"
       id="rect10"
       width="39.574978"
       height="6.6833"
       x="85.212509"
       y="190.04047"
       ry="3.34165"
       transform="translate(2.0716223,8.2864893)" /><rect
       style="fill:#001a72;fill-opacity:1;stroke:none;stroke-width:2.80633;stroke-dasharray:none;stroke-opacity:1;paint-order:fill markers stroke"
       id="rect9"
       width="46.166843"
       height="6.6833"
       x="81.916573"
       y="181.74484"
       ry="3.34165"
       transform="translate(2.0716223,8.2864893)" /></g><g
     inkscape:groupmode="layer"
     id="layer4"
     inkscape:label="Rays"><path
       style="fill:#dd3c62;fill-opacity:1;stroke:#001a72;stroke-width:3.91249;stroke-linecap:round;stroke-linejoin:round;stroke-dasharray:none;stroke-opacity:1;paint-order:fill markers stroke"
       d="m 105,46.205846 v 13.826211 m -47.433968,3.438341 8.887317,10.591492 m -34.126404,33.12389 13.61616,2.4009 m -4.850717,47.3104 11.97385,-6.91311 m 26.694675,39.35985 4.728843,-12.99239 m 45.749334,12.99239 -4.72885,-12.99239 m 43.39737,-19.45435 -11.97385,-6.91311"
       id="path11"
       inkscape:path-effect="#path-effect11"
       inkscape:original-d="M 105,46.205846 V 60.032057"
       transform="rotate(120.55777,113.77964,104.47596)"
       inkscape:transform-center-x="-26.555694"
       inkscape:transform-center-y="-72.25266" /></g></svg>
