<?xml version="1.0" encoding="UTF-8" standalone="no"?>
<!-- Created with Inkscape (http://www.inkscape.org/) -->

<svg
   width="210mm"
   height="210mm"
   viewBox="0 0 210 210"
   version="1.1"
   id="svg1"
   xml:space="preserve"
   inkscape:version="1.3.2 (091e20e, 2023-11-25, custom)"
   sodipodi:docname="Incubate Rizq Logo w text.svg"
   inkscape:export-filename="Incubate Rizq Logo w text.png"
   inkscape:export-xdpi="500"
   inkscape:export-ydpi="500"
   xmlns:inkscape="http://www.inkscape.org/namespaces/inkscape"
   xmlns:sodipodi="http://sodipodi.sourceforge.net/DTD/sodipodi-0.dtd"
   xmlns="http://www.w3.org/2000/svg"
   xmlns:svg="http://www.w3.org/2000/svg"><sodipodi:namedview
     id="namedview1"
     pagecolor="#ffffff"
     bordercolor="#000000"
     borderopacity="0.25"
     inkscape:showpageshadow="2"
     inkscape:pageopacity="0.0"
     inkscape:pagecheckerboard="0"
     inkscape:deskcolor="#d1d1d1"
     inkscape:document-units="mm"
     inkscape:zoom="0.72248176"
     inkscape:cx="400.70216"
     inkscape:cy="325.95979"
     inkscape:window-width="1920"
     inkscape:window-height="1046"
     inkscape:window-x="-11"
     inkscape:window-y="-11"
     inkscape:window-maximized="1"
     inkscape:current-layer="layer3" /><defs
     id="defs1"><rect
       x="316.96301"
       y="437.38129"
       width="372.32773"
       height="202.08122"
       id="rect23" /><inkscape:path-effect
       effect="fill_between_many"
       method="originald"
       linkedpaths="#path3,0,1|#path9,0,1|#path10,0,1|#path15,0,1|#path12,0,1|#path13,0,1|#path14,0,1"
       id="path-effect23"
       is_visible="true"
       lpeversion="0"
       join="true"
       close="true"
       autoreverse="true" /><rect
       x="316.96301"
       y="437.38129"
       width="372.32773"
       height="202.08122"
       id="rect24" /></defs><g
     inkscape:groupmode="layer"
     id="layer3"
     inkscape:label="Text"><g
       id="g24"
       transform="translate(0,49.741692)"><text
         xml:space="preserve"
         transform="matrix(0.39770135,0,0,0.41576352,-117.6176,-93.683995)"
         id="text23"
         style="font-size:94.4882px;line-height:1;font-family:'Agency FB';-inkscape-font-specification:'Agency FB';letter-spacing:6.41px;white-space:pre;shape-inside:url(#rect23);display:inline;fill:#051d71;fill-opacity:1;stroke-width:3.77953;stroke-linecap:round;stroke-linejoin:round;paint-order:fill markers stroke"><tspan
           x="316.96289"
           y="513.84106"
           id="tspan1">incubate
</tspan></text><text
         xml:space="preserve"
         transform="matrix(0.39770135,0,0,0.41576352,18.731241,-132.97328)"
         id="text24"
         style="font-size:94.4882px;line-height:1;font-family:'Agency FB';-inkscape-font-specification:'Agency FB';letter-spacing:6.41px;white-space:pre;shape-inside:url(#rect24);display:inline;fill:#28c520;fill-opacity:1;stroke-width:3.77953;stroke-linecap:round;stroke-linejoin:round;paint-order:fill markers stroke"><tspan
           x="316.96289"
           y="513.84106"
           id="tspan2"> 
</tspan><tspan
           x="316.96289"
           y="608.32928"
           id="tspan3">rizq</tspan></text></g></g><g
     inkscape:label="Logo"
     inkscape:groupmode="layer"
     id="layer1"><g
       id="g25"
       transform="matrix(1.1912802,0,0,1.1912802,56.68893,-50.381896)"><path
         d="m 55.519296,136.54539 c -0.993733,4.46587 -2.265852,7.89746 -5.758852,11.0578 -1.816491,1.14372 -3.667585,1.24587 -5.75885,0.9598 C 36.742953,146.50189 17.225216,137.52391 13.991093,100.23068 11.597879,66.800219 39.258426,59.943246 43.648967,61.507088 82.260389,75.259887 63.829934,105.92023 55.519296,136.54539 Z"
         fill="#28c520"
         id="path1"
         style="display:inline;stroke-width:0.319936"
         sodipodi:nodetypes="cccccc"
         inkscape:label="green part" /><path
         id="path3"
         style="fill:#ffffff;fill-opacity:1;stroke-width:0.264583"
         d="m 48.841463,114.64313 c -1.81884,-0.0434 -3.352624,1.20095 -5.045687,2.13579 -2.8483,1.5708 -9.352691,4.78754 -12.510949,9.3871 -2.692831,3.92173 -3.491735,8.7996 -3.622433,11.75114 -0.06113,3.40095 0.254009,8.27741 0.79375,11.64115 0.06588,3.5558 0.726233,7.5161 2.199254,10.81763 1.708793,6.48903 3.135508,8.08603 4.772287,10.62294 2.770394,4.29394 12.0311,11.3147 16.046951,11.1032 2.046567,-0.10779 5.327602,-10.52234 8.914623,-21.14987 3.510249,-10.40007 7.064746,-17.73638 5.916991,-27.12232 -0.264209,-2.16061 -1.369708,-6.08961 -3.187224,-8.77593 -2.593527,-3.83328 -6.751948,-6.55924 -12.967048,-10.15606 v 5.1e-4 c -0.455547,-0.16686 -0.890782,-0.24526 -1.310515,-0.25528 z"
         sodipodi:nodetypes="scscccsssssccs"
         transform="matrix(1.2092077,0,0,1.2092077,-16.322275,-75.155556)"
         inkscape:label="white part" /><g
         id="g1"
         style="display:inline"
         inkscape:label="blue part"
         transform="matrix(1.1801695,0,0,1.1801695,-15.598321,-71.897903)"><path
           d="m 30.967611,127.23933 c 3.296373,0.61315 13.301229,3.62041 27.121609,4.06272 1.011408,1.82115 1.009365,6.09458 -0.77308,7.19233 -2.581831,0.93034 -19.171707,2.18493 -29.38942,-2.16506 0.130594,-2.95143 0.870593,-6.91969 3.040891,-9.08999 z"
           fill="#041c70"
           id="path4"
           style="stroke-width:0.264583"
           sodipodi:nodetypes="ccccc" /><path
           d="m 60.735053,131.0375 h 3.96875 c 2.62322,14.20111 -5.141551,28.91775 -11.377084,47.88959 -0.04042,0.12298 -0.09559,0.26966 -0.285564,0.26322 -0.158337,-0.005 -0.211524,-0.14806 -0.243602,-0.26322 -7.80002,-28.0035 7.117134,-23.23704 7.9375,-47.88959 z"
           fill="#061d71"
           id="path5"
           style="stroke-width:0.264583"
           sodipodi:nodetypes="scssss" /><path
           d="m 27.662137,137.91667 c 9.750629,3.33366 19.550119,3.55353 29.633333,1.85249 -0.077,2.04839 -1.019756,3.86837 -1.866553,5.68493 -3.643777,7.90376 -21.589275,4.40362 -27.237613,2.5175 -0.539742,-3.36375 -0.590301,-6.65322 -0.529167,-10.05417 z"
           fill="#041d70"
           id="path6"
           style="stroke-width:0.264583"
           sodipodi:nodetypes="ccccsc" /><path
           d="m 50.15172,114.89792 c 4.459372,3.59971 13.984967,8.79664 13.806185,14.07639 -0.496023,2.61911 -32.734478,-1.43977 -31.715388,-3.52294 1.512948,-3.0927 8.704962,-7.10144 11.553265,-8.67224 2.083772,-1.15057 3.926361,-2.77057 6.355943,-1.88063 z"
           fill="#051d71"
           id="path7"
           style="stroke-width:0.264583"
           sodipodi:nodetypes="cssscc" /><path
           d="m 28.455887,149.55833 0.805119,0.21291 c 8.520163,2.74635 17.111579,2.70025 23.271964,0.31615 -1.071921,3.07526 -2.072711,7.76705 -3.635954,9.10642 -3.613504,1.88853 -15.655627,2.7864 -18.952115,0.13086 -1.314432,-3.62481 -1.42328,-6.21116 -1.489014,-9.76681 z"
           fill="#041c71"
           id="path8"
           style="stroke-width:0.264583"
           sodipodi:nodetypes="ccccccc" /><path
           d="m 49.093389,169.13749 c -2.575035,1.44474 -12.466208,3.50929 -15.025398,1.05834 -1.51582,-2.73094 -3.029229,-5.42985 -3.271746,-8.63415 10.308182,2.80945 14.90455,-1.5089 18.82631,-0.89093 -0.941103,3.29652 -0.404125,4.36964 -0.529166,8.46674 z"
           fill="#051d71"
           id="path11"
           style="stroke-width:0.264583"
           sodipodi:nodetypes="ccccc" /><path
           d="m 49.35797,170.19583 c 1.199388,3.97111 2.966855,8.90873 1.159921,13.42405 -3.226395,-0.26926 -12.68177,-6.80946 -14.831937,-11.17388 4.904286,0.87703 9.979397,-0.6557 13.672016,-2.25017 z"
           fill="#051f6f"
           id="path17"
           style="stroke-width:0.264583"
           sodipodi:nodetypes="cccc" /></g></g></g></svg>
